# xmcd
# 
# Track frame offsets:
#     150
#     22785
#     43371
#     60569
#     75138
#     93596
#     114054
#     134740
#     167970
#     193366
#     214780
#     229817
#     243628
#     256397
#     279939
# 
# Disc length: 4009
# 
# Revision: 0
# Processed by: cddbd v1.5.2PL0 Copyright (c) Steve Scherf et al.
# Submitted via: fre:ac v1.0.17
# 
DISCID=d00fa70f
DTITLE=Odetta - Lookin' for a Home
DYEAR=2001
DGENRE=Folk
TTITLE0=Goodnight Irene
TTITLE1=You Don't Know My Mind
TTITLE2=Mother's Blues
TTITLE3=When I Was a Cowboy
TTITLE4=In the Pines
TTITLE5=How Long
TTITLE6=Bourgeois Blues
TTITLE7=Alabama Bound - Boll Weevil
TTITLE8=Roberta
TTITLE9=New Orleans
TTITLE10=Jim Crow Blues
TTITLE11=Rock Island Line
TTITLE12=Jullie Anne Johnson - Whoa Black Buck
TTITLE13=Easy Rider
TTITLE14=Midnight Special
EXTD=
EXTT0=
EXTT1=
EXTT2=
EXTT3=
EXTT4=
EXTT5=
EXTT6=
EXTT7=
EXTT8=
EXTT9=
EXTT10=
EXTT11=
EXTT12=
EXTT13=
EXTT14=
PLAYORDER=
